<?xml version="1.0" standalone="no"?><!DOCTYPE svg PUBLIC "-//W3C//DTD SVG 1.1//EN" "http://www.w3.org/Graphics/SVG/1.1/DTD/svg11.dtd"><svg t="1570517907817" class="icon" viewBox="0 0 1024 1024" version="1.1" xmlns="http://www.w3.org/2000/svg" p-id="4004" xmlns:xlink="http://www.w3.org/1999/xlink" width="200" height="200"><defs><style type="text/css"></style></defs><path d="M644.227 679.688c0 134.152-132.024 174.398-132.024 214.643 0-40.246-132.024-80.491-132.024-214.643 0-308.549 132.024-536.608 132.024-536.608s132.024 228.059 132.024 536.608z" fill="#419646" p-id="4005"></path><path d="M652.079 679.689c0 39.555-10.958 74.585-33.499 107.094-19.142 27.606-43.378 48.483-62.853 65.258-19.93 17.167-35.672 30.728-35.672 42.291H504.35c0-11.563-15.742-25.123-35.672-42.291-19.475-16.775-43.711-37.652-62.853-65.258-22.541-32.509-33.499-67.539-33.499-107.094 0-70.727 6.974-143.083 20.728-215.058 11.001-57.57 26.341-115.031 45.594-170.786 32.813-95.024 66.158-153.068 66.491-153.644L512.202 128l7.063 12.201c0.333 0.575 33.678 58.62 66.491 153.644C605.01 349.6 620.35 407.06 631.351 464.63c13.755 71.976 20.728 144.331 20.728 215.059z m-139.877 194.52c7.266-9.823 18.937-19.875 32.276-31.365 38.781-33.407 91.895-79.158 91.895-163.155 0-158.467-35.667-295.116-65.588-381.846-23.458-67.996-47.139-116.767-58.583-138.782-11.444 22.016-35.125 70.786-58.583 138.782-29.921 86.73-65.588 223.379-65.588 381.846 0 83.997 53.114 129.749 91.895 163.155 13.34 11.489 25.01 21.542 32.276 31.365z" fill="#286432" p-id="4006"></path><path d="M555.932 809.919c7.086-14.256 13.09-28.911 17.709-43.872a276.911 276.911 0 0 0 9.986-45.543c2.057-15.344 2.857-30.81 2.64-46.218l-0.21-23.092-0.5-23.089a2234.02 2234.02 0 0 0-4.393-92.285 2252.974 2252.974 0 0 0-20.197-183.888c-2.354-15.264-4.793-30.518-7.477-45.743a1875.194 1875.194 0 0 0-8.496-45.616 1709.473 1709.473 0 0 0-9.638-45.454c-3.446-15.115-7.041-30.208-11.152-45.206 4.032 15.012 7.548 30.118 10.914 45.244 3.351 15.129 6.466 30.294 9.399 45.482a1874.597 1874.597 0 0 1 8.255 45.637c2.604 15.231 4.962 30.49 7.235 45.758a2251.176 2251.176 0 0 1 19.226 183.877 2232.988 2232.988 0 0 1 3.907 92.236l0.379 23.071 0.089 23.073c0.134 15.364-0.749 30.702-2.874 45.937a275.015 275.015 0 0 1-10.155 45.147c-4.662 14.818-10.691 29.318-17.801 43.437-7.075 14.141-15.356 27.825-23.638 41.568-2.47 4.146-4.945 8.301-7.284 12.526 1.129-3.368 2.3-6.733 3.459-10.104 4.794-13.772 9.347-27.663 12.939-41.737 7.259-28.139 10.999-56.875 11.818-85.612 0.469-14.382 0.043-28.726-0.062-43.075l-0.269-21.523-0.588-21.518-0.588-21.517-0.868-21.51-0.894-21.509c-0.273-7.17-0.747-14.334-1.111-21.501-3.025-57.335-7.389-114.613-12.831-171.815-2.68-28.604-5.747-57.182-9.01-85.742-3.281-28.559-6.846-57.095-10.902-85.583 3.902 28.503 7.311 57.051 10.437 85.62 3.107 28.57 6.018 57.155 8.543 85.765 5.13 57.214 9.182 114.496 11.895 171.821 0.325 7.166 0.76 14.329 0.994 21.497l0.777 21.503 0.75 21.503 0.471 21.509 0.471 21.508 0.152 21.511c0.028 14.339 0.378 28.69-0.186 42.989-1 28.611-4.905 57.155-12.294 85.074-3.66 13.969-8.268 27.741-13.147 41.482-1.987 5.661-4.002 11.327-5.82 17.066L512.2 156.552l-0.297 55.755c-3.931 27.775-7.407 55.594-10.606 83.436-3.262 28.56-6.329 57.138-9.01 85.742-5.441 57.202-9.805 114.481-12.831 171.815-0.364 7.167-0.838 14.331-1.111 21.501l-0.894 21.509-0.868 21.51-0.583 21.515-0.588 21.518-0.269 21.523c-0.106 14.349-0.531 28.692-0.063 43.075 0.82 28.737 4.56 57.473 11.819 85.612 3.592 14.074 8.145 27.965 12.939 41.737 1.16 3.371 2.33 6.736 3.46 10.104-2.347-4.239-4.83-8.408-7.309-12.568-8.291-13.757-16.58-27.455-23.656-41.612-7.113-14.134-13.139-28.652-17.801-43.485a275.128 275.128 0 0 1-10.138-45.197c-2.119-15.252-2.991-30.604-2.848-45.985l0.091-23.096 0.374-23.095a2266.109 2266.109 0 0 1 3.871-92.331 2288.3 2288.3 0 0 1 18.998-184.083c2.248-15.286 4.573-30.564 7.143-45.815a1907.981 1907.981 0 0 1 8.146-45.698 1741.646 1741.646 0 0 1 9.271-45.548c3.319-15.149 6.786-30.278 10.76-45.317-4.053 15.025-7.599 30.143-10.998 45.28-3.384 15.141-6.536 30.318-9.511 45.52a1908.594 1908.594 0 0 0-8.387 45.678c-2.651 15.245-5.057 30.519-7.385 45.801a2290.593 2290.593 0 0 0-19.968 184.094 2267.074 2267.074 0 0 0-4.356 92.379l-0.495 23.112-0.212 23.115c-0.226 15.423 0.564 30.906 2.614 46.266a277.023 277.023 0 0 0 9.968 45.593c4.619 14.978 10.619 29.65 17.709 43.921 7.051 14.291 15.325 28.119 23.523 41.88 3.323 5.639 6.637 11.279 9.576 17.015-4.084-5.247-8.534-10.236-13.006-15.181-11.009-12.065-22.199-23.933-32.307-36.444-10.145-12.477-19.259-25.543-26.794-39.242-7.547-13.69-13.45-28.013-17.555-42.701-4.075-14.694-6.351-29.735-6.942-44.827-0.308-7.535-0.096-15.131-0.086-22.708l0.073-11.37 0.271-11.368a1488.38 1488.38 0 0 1 4.833-90.867 1476.908 1476.908 0 0 1 26.484-180.521 1342.102 1342.102 0 0 1 21.881-89.112c4.166-14.758 8.612-29.463 13.41-44.086 4.824-14.616 9.862-29.191 15.657-43.56-5.872 14.348-10.989 28.905-15.891 43.506-4.876 14.608-9.401 29.299-13.647 44.046a1345.095 1345.095 0 0 0-22.364 89.063 1478.806 1478.806 0 0 0-27.462 180.546 1490.382 1490.382 0 0 0-5.322 90.942l-0.332 11.38-0.133 11.383c-0.05 7.591-0.303 15.167-0.035 22.795 0.512 15.23 2.725 30.436 6.763 45.309 4.067 14.867 9.96 29.384 17.516 43.258 7.543 13.883 16.684 27.125 26.842 39.743 10.118 12.649 21.314 24.635 32.213 36.696 5.417 6.045 10.777 12.125 15.37 18.526 2.297 3.197 4.336 6.5 5.928 9.908 0.237 0.537 0.463 1.077 0.681 1.618l-0.047 8.87h7.852l-0.036-6.861c0.401-1.221 0.892-2.43 1.421-3.629 1.592-3.409 3.632-6.712 5.929-9.91 4.594-6.403 9.955-12.484 15.373-18.529 10.901-12.063 22.099-24.051 32.217-36.703 10.159-12.62 19.301-25.865 26.843-39.751 7.556-13.877 13.448-28.397 17.513-43.267 4.037-14.877 6.248-30.085 6.757-45.318 0.266-7.63 0.011-15.207-0.039-22.799l-0.134-11.385-0.336-11.382a1476.584 1476.584 0 0 0-5.372-90.955 1466.606 1466.606 0 0 0-27.711-180.549 1333.936 1333.936 0 0 0-22.56-89.044c-4.283-14.742-8.846-29.427-13.764-44.028-4.943-14.593-10.103-29.143-16.023-43.48 5.843 14.359 10.925 28.925 15.79 43.534 4.839 14.617 9.323 29.315 13.526 44.069a1332.192 1332.192 0 0 1 22.078 89.093 1464.569 1464.569 0 0 1 26.732 180.524 1475.326 1475.326 0 0 1 4.883 90.88l0.275 11.37 0.074 11.372c0.01 7.578 0.223 15.175-0.083 22.712-0.588 15.094-2.861 30.138-6.935 44.835-4.102 14.69-10.005 29.017-17.551 42.709-7.534 13.702-16.648 26.771-26.795 39.25-10.109 12.514-21.301 24.384-32.312 36.45-4.475 4.947-8.926 9.938-13.012 15.187 2.932-5.722 6.237-11.348 9.552-16.973 8.188-13.745 16.454-27.559 23.503-41.833z m-52.591 42.02c-4.879-13.742-9.487-27.513-13.147-41.482-7.389-27.919-11.294-56.463-12.294-85.074-0.565-14.299-0.214-28.65-0.186-42.989l0.152-21.511 0.471-21.508 0.471-21.509 0.75-21.503 0.777-21.503c0.234-7.169 0.669-14.331 0.994-21.497 2.713-57.325 6.765-114.607 11.895-171.821 2.525-28.61 5.436-57.195 8.543-85.765 3.044-27.821 6.365-55.621 10.14-83.38l-3.482 654.293c-1.62-4.95-3.365-9.851-5.084-14.751z" fill="#C8E678" p-id="4007"></path><path d="M556.833 646.54c97.041 94.86 32.798 214.574 61.91 243.032-29.112-28.458-151.58 34.341-248.621-60.519C146.928 610.876 75.314 358.358 75.314 358.358s258.324 70.004 481.519 288.182z" fill="#419646" p-id="4008"></path><path d="M562.385 641.112c28.613 27.969 46.204 60.314 53.781 98.882 6.434 32.751 4.398 64.267 2.762 89.589-1.674 25.915-2.997 46.385 5.367 54.561L613.19 895c-8.364-8.176-29.305-6.883-55.816-5.247-25.905 1.599-58.145 3.589-91.649-2.7-39.455-7.406-72.543-24.603-101.155-52.572-51.162-50.012-98.57-105.995-140.909-166.396-33.865-48.312-64.583-99.547-91.301-152.279-45.534-89.873-63.943-153.966-64.124-154.603l-3.831-13.51 13.82 3.745c0.652 0.176 66.218 18.172 158.157 62.683 53.945 26.117 106.357 56.145 155.781 89.249 61.79 41.387 119.061 87.73 170.222 137.742z m41.802 234.231c-1.968-11.968-0.987-27.143 0.134-44.488 3.258-50.428 7.72-119.492-53.041-178.887-114.63-112.053-238.697-184.025-322.592-224.67-65.773-31.866-117.798-49.983-141.815-57.641 7.834 23.477 26.367 74.333 58.966 138.627 41.58 82.009 115.207 203.288 229.836 315.341 60.761 59.395 131.413 55.033 183.001 51.849 17.743-1.095 33.267-2.054 45.511-0.131z" fill="#286432" p-id="4009"></path><path d="M588.603 799.657c-5.301-14.979-11.657-29.491-19.213-43.263a281.864 281.864 0 0 0-25.883-39.107c-9.645-12.271-20.267-23.76-31.566-34.506l-16.853-16.183-17.055-15.98a2321.051 2321.051 0 0 0-69.862-62.219 2346.656 2346.656 0 0 0-147.3-116.068c-12.706-9.166-25.465-18.267-38.376-27.177a1963.02 1963.02 0 0 0-39.005-26.383 1788.242 1788.242 0 0 0-39.695-25.479c-13.37-8.306-26.831-16.494-40.586-24.257 13.71 7.828 27.124 16.079 40.445 24.448 13.313 8.381 26.485 16.952 39.547 25.664a1964.455 1964.455 0 0 1 38.85 26.564c12.859 8.97 25.564 18.13 38.216 27.354a2344.429 2344.429 0 0 1 146.605 116.731 2317.754 2317.754 0 0 1 69.483 62.52l16.957 16.052 16.753 16.253c11.208 10.772 21.679 22.227 31.197 34.469a279.664 279.664 0 0 1 25.477 38.943c7.422 13.7 13.648 28.121 18.834 43.018 5.227 14.889 9.269 30.29 13.354 45.732 1.252 4.639 2.508 9.288 3.911 13.892-1.638-3.162-3.245-6.351-4.863-9.536-6.573-13.052-13.401-26.022-21.042-38.456-15.222-24.915-33.364-47.819-53.572-68.706-10.072-10.494-20.749-20.342-31.203-30.415l-15.759-15.033-15.981-14.809-15.981-14.809-16.173-14.61-16.191-14.591c-5.38-4.881-10.897-9.619-16.339-14.436-43.613-38.45-88.132-75.936-133.358-112.623-22.586-18.373-45.427-36.461-68.393-54.401-22.979-17.926-46.142-35.641-69.617-52.981 23.377 17.458 46.439 35.288 69.315 53.328 22.864 18.054 45.6 36.255 68.081 54.74 45.014 36.91 89.315 74.614 132.7 113.274 5.413 4.843 10.902 9.607 16.253 14.514l16.104 14.668 16.085 14.687 15.891 14.884 15.891 14.883 15.668 15.105c10.392 10.12 21.021 20.025 30.965 30.527 19.989 20.923 37.876 43.806 52.846 68.655 7.517 12.407 14.22 25.331 20.711 38.42 2.69 5.376 5.364 10.776 8.229 16.09L85.057 367.881l40.121 39.63c17.312 22.357 34.978 44.431 52.855 66.329 18.353 22.45 36.856 44.777 55.652 66.856 37.53 44.209 75.878 87.728 115.213 130.361 4.927 5.319 9.774 10.713 14.768 15.972l14.927 15.827 14.946 15.81 15.149 15.621 15.15 15.622 15.379 15.405c10.305 10.219 20.379 20.656 31.114 30.502 21.367 19.754 44.798 37.487 70.286 52.368 12.72 7.469 25.988 14.144 39.34 20.569 3.258 1.582 6.52 3.153 9.755 4.753-4.726-1.375-9.498-2.607-14.26-3.835-15.813-3.997-31.583-7.953-46.828-13.073-15.254-5.077-30.017-11.178-44.043-18.445a287.812 287.812 0 0 1-39.862-24.952c-12.531-9.32-24.253-19.573-35.278-30.548l-16.643-16.394-16.442-16.589a2338.56 2338.56 0 0 1-64.052-67.963A2351.665 2351.665 0 0 1 192.578 538.41c-9.468-12.362-18.876-24.773-28.09-37.334a1943.696 1943.696 0 0 1-27.296-37.944c-8.956-12.756-17.769-25.618-26.392-38.616-8.611-13.006-17.103-26.101-25.172-39.482 8.003 13.425 16.431 26.567 24.978 39.62a1777.41 1777.41 0 0 0 26.203 38.762 1947.077 1947.077 0 0 0 27.111 38.096c9.153 12.612 18.501 25.075 27.909 37.491a2352.049 2352.049 0 0 0 119.048 143.976 2339.42 2339.42 0 0 0 63.744 68.333l16.368 16.685 16.571 16.492c10.997 11.062 22.755 21.464 35.315 30.908a289.84 289.84 0 0 0 40.029 25.349c14.1 7.398 28.956 13.626 44.293 18.816 15.323 5.232 31.176 9.29 46.928 13.354 6.429 1.691 12.852 3.388 19.079 5.412-6.684-0.887-13.438-1.339-20.178-1.744-16.512-0.922-33.009-1.579-49.207-3.438-16.199-1.81-32.095-4.749-47.332-9.228-15.239-4.464-29.774-10.511-43.301-18.06-13.511-7.573-26-16.636-37.335-26.899-5.668-5.115-11.013-10.633-16.487-15.997l-8.173-8.09-8.031-8.226a1534.601 1534.601 0 0 1-62.313-67.593c-40.162-46.298-77.541-95.018-111.856-145.954a1362.514 1362.514 0 0 1-48.988-78.136c-7.73-13.316-15.223-26.786-22.409-40.443-7.162-13.669-14.142-27.458-20.438-41.624 6.227 14.204 13.139 28.035 20.234 41.747 7.119 13.7 14.546 27.216 22.211 40.578a1364.129 1364.129 0 0 0 48.612 78.435c34.072 51.147 71.225 100.098 111.182 146.648a1535.827 1535.827 0 0 0 62.021 67.984l7.997 8.276 8.14 8.141c5.456 5.402 10.757 10.934 16.464 16.143 11.378 10.415 23.943 19.638 37.557 27.364 13.63 7.701 28.298 13.893 43.677 18.48 15.376 4.604 31.419 7.649 47.729 9.549 16.304 1.95 32.891 2.687 49.322 3.682 8.203 0.53 16.391 1.125 24.269 2.476 3.937 0.673 7.768 1.6 11.359 2.909 0.556 0.216 1.106 0.441 1.652 0.673l6.383 6.305 1.388-1.357 0.53-0.518 2.246-2.195 0.53-0.518 0.858-0.839-4.988-4.826a39.79 39.79 0 0 1-1.62-3.549c-1.34-3.511-2.288-7.257-2.976-11.105-1.383-7.703-1.991-15.708-2.533-23.728-1.018-16.065-1.772-32.282-3.768-48.222-1.945-15.946-5.062-31.63-9.774-46.662-4.696-15.035-11.032-29.375-18.914-42.699-7.906-13.31-17.345-25.592-28.003-36.715-5.331-5.579-10.992-10.761-16.52-16.095l-8.331-7.958-8.471-7.816a1534.415 1534.415 0 0 0-69.592-60.602 1530.816 1530.816 0 0 0-150.198-108.513 1397.027 1397.027 0 0 0-80.364-47.37c-13.692-7.464-27.542-14.693-41.581-21.619-14.052-6.902-28.225-13.624-42.781-19.67 14.518 6.114 28.649 12.902 42.656 19.869 13.995 6.991 27.798 14.285 41.443 21.812a1395.036 1395.036 0 0 1 80.058 47.738 1528.458 1528.458 0 0 1 149.488 109.173 1531.83 1531.83 0 0 1 69.192 60.887l8.419 7.85 8.278 7.99c5.488 5.352 11.135 10.576 16.37 16.117 10.503 11.079 19.778 23.289 27.528 36.497 7.726 13.223 13.916 27.433 18.484 42.332 4.584 14.896 7.593 30.437 9.445 46.275 1.904 15.836 2.576 31.966 3.519 48.109 0.415 6.591 0.877 13.197 1.785 19.733-2.066-6.072-3.798-12.335-5.524-18.604-4.153-15.384-8.299-30.865-13.641-45.831z m-6.791 66.064c-13.39-6.344-26.61-12.897-39.303-20.245-25.421-14.634-48.83-32.119-70.233-51.659-10.743-9.721-20.876-20.111-31.229-30.269l-15.452-15.315-15.225-15.534-15.226-15.534-15.024-15.724-15.005-15.742c-5.02-5.231-9.894-10.596-14.848-15.888-39.548-42.41-78.119-85.715-115.878-129.717-18.91-21.975-37.529-44.201-55.999-66.55-17.972-21.776-35.734-43.73-53.144-65.967l470.831 465.062c-4.726-2.381-9.506-4.642-14.265-6.918z" fill="#C8E678" p-id="4010"></path><path d="M654.283 829.053c-97.041 94.86-219.508 32.061-248.621 60.519 29.112-28.458-35.131-148.173 61.91-243.032 223.194-218.177 481.519-288.182 481.519-288.182s-71.614 252.518-294.808 470.695z" fill="#419646" p-id="4011"></path><path d="M659.835 834.481c-28.613 27.969-61.701 45.166-101.155 52.572-33.505 6.289-65.744 4.299-91.649 2.7-26.511-1.637-47.452-2.929-55.816 5.247l-11.105-10.856c8.364-8.176 7.042-28.646 5.367-54.561-1.636-25.323-3.672-56.838 2.762-89.589 7.577-38.568 25.169-70.912 53.781-98.882 51.162-50.012 108.432-96.355 170.223-137.742 49.423-33.104 101.836-63.131 155.781-89.249 91.939-44.511 157.505-62.506 158.157-62.683l13.82-3.745-3.831 13.51c-0.181 0.637-18.59 64.729-64.124 154.602-26.718 52.733-57.436 103.967-91.301 152.279-42.34 60.402-89.748 116.386-140.91 166.397z m-239.617 40.862c12.243-1.923 27.767-0.964 45.511 0.131 51.588 3.184 122.24 7.546 183.001-51.849 114.63-112.053 188.256-233.332 229.836-315.341 32.599-64.295 51.132-115.15 58.966-138.627-24.017 7.658-76.042 25.774-141.815 57.641-83.895 40.645-207.963 112.617-322.592 224.67-60.761 59.395-56.299 128.459-53.041 178.887 1.121 17.345 2.102 32.52 0.134 44.488z" fill="#286432" p-id="4012"></path><path d="M497.645 860.11c15.323-5.182 30.169-11.395 44.258-18.781a289.765 289.765 0 0 0 40.006-25.301c12.554-9.428 24.307-19.811 35.3-30.857l16.555-16.474 16.348-16.672a2304.558 2304.558 0 0 0 63.65-68.292 2313.228 2313.228 0 0 0 118.737-143.989c9.376-12.42 18.687-24.893 27.802-37.514a1915.01 1915.01 0 0 0 26.99-38.128c8.85-12.817 17.554-25.742 26.065-38.803 8.497-13.069 16.873-26.228 24.815-39.674-8.008 13.402-16.449 26.514-25.01 39.536-8.574 13.014-17.341 25.89-26.254 38.658a1914.574 1914.574 0 0 1-27.175 37.976c-9.176 12.57-18.547 24.99-27.983 37.357a2312.28 2312.28 0 0 1-119.415 143.31 2304.894 2304.894 0 0 1-63.958 67.921l-16.421 16.576-16.627 16.377c-11.02 10.957-22.738 21.192-35.261 30.496a287.786 287.786 0 0 1-39.838 24.904c-14.015 7.255-28.767 13.341-44.007 18.41-15.232 5.109-30.986 9.061-46.784 13.054-4.746 1.224-9.501 2.452-14.212 3.823 3.235-1.601 6.497-3.172 9.755-4.753 13.352-6.425 26.62-13.1 39.341-20.569 25.488-14.88 48.919-32.614 70.286-52.368 10.735-9.846 20.81-20.282 31.115-30.502l15.379-15.405 15.15-15.622 15.149-15.621 14.946-15.81 14.927-15.827c4.994-5.259 9.84-10.652 14.768-15.972 39.335-42.633 77.682-86.151 115.213-130.36 18.796-22.079 37.299-44.406 55.652-66.856 18.338-22.462 36.46-45.104 54.199-68.052-17.859 22.851-36.099 45.395-54.555 67.757-18.47 22.35-37.089 44.575-55.999 66.55-37.759 44.002-76.33 87.307-115.878 129.717-4.954 5.292-9.828 10.657-14.848 15.888l-15.005 15.742-15.024 15.724-15.226 15.534-15.225 15.534-15.452 15.315c-10.352 10.158-20.486 20.549-31.229 30.269-21.404 19.54-44.813 37.024-70.233 51.659-12.693 7.348-25.913 13.901-39.303 20.245-5.5 2.63-11.024 5.243-16.46 8.044l512.685-506.403-40.541 39.219c-22.871 16.923-45.452 34.192-67.854 51.667-22.966 17.94-45.807 36.027-68.393 54.401-45.226 36.687-89.745 74.173-133.358 112.623-5.442 4.817-10.959 9.555-16.339 14.436l-16.191 14.591-16.173 14.61-15.98 14.809-15.981 14.809-15.759 15.033c-10.454 10.073-21.131 19.921-31.203 30.415-20.208 20.887-38.349 43.791-53.572 68.706-7.64 12.434-14.469 25.404-21.042 38.456-1.618 3.185-3.225 6.374-4.863 9.536 1.407-4.62 2.667-9.284 3.923-13.939 4.089-15.458 8.136-30.873 13.373-45.775 5.194-14.911 11.435-29.342 18.869-43.053a279.848 279.848 0 0 1 25.525-38.966c9.534-12.249 20.023-23.708 31.25-34.485l16.771-16.269 16.97-16.072a2350.155 2350.155 0 0 1 69.526-62.612c47.209-40.846 96.117-79.881 146.592-117.035 12.647-9.255 25.342-18.452 38.192-27.458a1995.362 1995.362 0 0 1 38.817-26.683c13.049-8.754 26.207-17.369 39.504-25.799 13.305-8.417 26.701-16.719 40.39-24.606-13.734 7.823-27.177 16.061-40.531 24.416a1822.419 1822.419 0 0 0-39.653 25.614 1993.994 1993.994 0 0 0-38.972 26.502c-12.902 8.947-25.652 18.085-38.353 27.282-50.693 36.921-99.833 75.734-147.287 116.372a2353.44 2353.44 0 0 0-69.904 62.311l-17.068 16-16.871 16.199c-11.316 10.75-21.958 22.243-31.619 34.521a281.815 281.815 0 0 0-25.932 39.13c-7.568 13.783-13.939 28.305-19.249 43.298-5.352 14.979-9.504 30.476-13.661 45.873-1.73 6.285-3.466 12.563-5.536 18.65 0.908-6.533 1.37-13.136 1.784-19.724 0.943-16.141 1.615-32.267 3.517-48.101 1.851-15.835 4.859-31.373 9.44-46.268 4.566-14.896 10.753-29.105 18.475-42.328 7.747-13.207 17.019-25.416 27.518-36.495 5.233-5.541 10.878-10.765 16.365-16.116l8.276-7.99 8.415-7.851a1546.008 1546.008 0 0 1 69.147-60.912 1541.113 1541.113 0 0 1 149.31-109.342 1405.594 1405.594 0 0 1 79.933-47.887c13.622-7.556 27.402-14.881 41.373-21.905 13.984-7.001 28.089-13.824 42.581-19.979-14.531 6.087-28.679 12.844-42.707 19.779-14.015 6.959-27.842 14.219-41.511 21.712a1407.93 1407.93 0 0 0-80.239 47.519 1543.65 1543.65 0 0 0-150.02 108.683 1547.49 1547.49 0 0 0-69.547 60.627l-8.467 7.818-8.329 7.957c-5.526 5.333-11.185 10.515-16.514 16.094-10.655 11.123-20.09 23.404-27.993 36.713-7.878 13.324-14.212 27.662-18.905 42.695-4.709 15.03-7.824 30.713-9.769 46.656-1.995 15.938-2.749 32.152-3.767 48.214-0.542 8.018-1.15 16.023-2.533 23.724-0.688 3.848-1.636 7.593-2.976 11.103a53.996 53.996 0 0 1-0.689 1.615l-6.449 6.239 1.388 1.357 0.53 0.518 2.246 2.195 0.53 0.518 0.858 0.839 4.937-4.876a41.437 41.437 0 0 1 3.63-1.583c3.592-1.31 7.423-2.236 11.361-2.909 7.88-1.352 16.07-1.946 24.274-2.476 16.434-0.995 33.024-1.732 49.331-3.684 16.312-1.901 32.357-4.948 47.735-9.554 15.381-4.59 30.051-10.784 43.681-18.489 13.616-7.729 26.181-16.955 37.559-27.374 5.707-5.211 11.008-10.745 16.465-16.148l8.141-8.143 7.996-8.28a1523.394 1523.394 0 0 0 61.995-68.028c39.928-46.588 77.021-95.602 111.009-146.822a1353.379 1353.379 0 0 0 48.459-78.558c7.635-13.385 15.031-26.923 22.116-40.646 7.061-13.736 13.937-27.59 20.122-41.82-6.255 14.192-13.199 28.005-20.326 41.697-7.152 13.68-14.613 27.173-22.313 40.511a1352.646 1352.646 0 0 1-48.835 78.259c-34.23 51.009-71.549 99.791-111.683 146.128a1521.557 1521.557 0 0 1-62.287 67.637l-8.03 8.229-8.174 8.092c-5.475 5.365-10.819 10.885-16.488 16.002-11.334 10.266-23.824 19.333-37.336 26.909-13.527 7.552-28.064 13.603-43.305 18.069-15.239 4.481-31.137 7.422-47.339 9.233-16.2 1.861-32.701 2.518-49.215 3.44-6.743 0.405-13.501 0.857-20.187 1.745 6.212-2.02 12.619-3.713 19.032-5.4 15.731-4.061 31.568-8.115 46.878-13.336z m-67.584-6.639c6.49-13.089 13.194-26.012 20.711-38.42 14.971-24.849 32.857-47.732 52.846-68.655 9.944-10.501 20.573-20.407 30.965-30.527l15.668-15.105 15.891-14.883 15.891-14.884 16.085-14.686 16.104-14.668c5.351-4.907 10.84-9.671 16.253-14.514 43.385-38.66 87.686-76.363 132.7-113.274 22.481-18.485 45.217-36.686 68.081-54.74 22.277-17.568 44.735-34.93 67.484-51.95L422.985 867.414c2.436-4.618 4.748-9.29 7.076-13.943z" fill="#C8E678" p-id="4013"></path><path d="M241.369 895.673a270.631 48.327 0 1 0 541.262 0 270.631 48.327 0 1 0-541.262 0Z" fill="#286432" opacity=".5" p-id="4014"></path><path d="M512.477 431.328c-40.167 0-107.649 83.43-163.947 178.768 33.614 34.894 96.097 77.178 164.83 114.546 69.031-35.531 131.756-75.93 165.718-109.691-56.814-97.328-125.796-183.623-166.601-183.623z" fill="#FAEBD2" p-id="4015"></path><path d="M679.078 614.95c-33.962 33.761-96.687 74.161-165.718 109.691 92.089 50.066 195.398 91.306 255.531 94.117-12.34-53.612-47.741-131.734-89.813-203.808z" fill="#419646" p-id="4016"></path><path d="M348.53 610.096C285 717.681 235.712 840.43 255.997 875.565c38.26 66.268 474.753 65.43 512.96 0 6.467-11.075 5.844-31.131-0.066-56.806C663.876 813.85 427.18 691.742 348.53 610.096z" fill="#419646" p-id="4017"></path><path d="M774.945 823.88l0.085 0.004-1.429-6.209-0.822-3.572-0.028-0.001c-12.675-51.987-45.922-126.938-89.499-201.587l-3.15-5.396-4.431 4.404C644 643.006 584.949 682.173 513.42 719.171c-70.09-38.297-130.013-79.835-161.41-112.428l-4.41-4.578-3.232 5.473c-32.751 55.462-60.478 112.534-78.075 160.703-9.285 25.417-15.377 47.395-18.107 65.323-3.042 19.971-1.822 34.882 3.626 44.316 21.836 37.821 151.757 51.542 256.38 51.8 1.07 0.002 2.129 0.004 3.197 0.004 61.229 0 120.002-4.334 165.799-12.239 53.758-9.28 86.038-22.584 95.941-39.544 6.323-10.826 6.926-29.019 1.816-54.121z m-43.186-95.903a85.936 85.936 0 0 1-2.444 3.229 114.522 114.522 0 0 1-8.145 9.137l-2.154 2.172-2.2 2.125c-1.478 1.405-2.954 2.801-4.474 4.156a175.935 175.935 0 0 1-4.547 4.05 170.883 170.883 0 0 1-4.628 3.931c-3.101 2.594-6.589 4.751-9.972 6.915a60.259 60.259 0 0 0-4.839 3.468 63.324 63.324 0 0 0-2.234 1.925 85.844 85.844 0 0 0-2.127 2.053 137.12 137.12 0 0 0-8.054 8.954l-1.96 2.431-1.973 2.526c-0.653 0.893-1.331 1.736-2.006 2.671l-1.032 1.399c-0.158 0.233-0.321 0.457-0.485 0.686-28.292-10.053-59.187-22.927-91.119-38.044 0.295-0.033 0.589-0.067 0.885-0.098 1.954-0.204 3.878-0.503 5.794-0.844 7.677-1.337 15.121-3.496 22.32-6.185l2.688-1.04c0.892-0.355 1.762-0.754 2.644-1.13 1.753-0.773 3.499-1.567 5.193-2.455 3.418-1.725 6.709-3.684 9.929-5.754 6.423-4.176 12.561-8.752 18.798-13.107 12.448-8.749 24.333-18.342 35.07-29.196 1.335-1.364 2.641-2.76 3.957-4.135 1.299-1.398 2.56-2.838 3.836-4.251 1.253-1.442 2.466-2.923 3.695-4.378a209.584 209.584 0 0 0 3.502-4.541l1.652-2.351c0.543-0.788 1.114-1.547 1.614-2.37 0.895-1.44 1.835-2.832 2.664-4.308 11.216 21.41 21.352 42.387 30.152 62.359z m-54.58 64.86l0.617-0.054c0.593-0.071 1.172-0.176 1.763-0.266 1.188-0.18 2.327-0.449 3.468-0.731 4.545-1.169 8.763-3.009 12.66-5.252a35.402 35.402 0 0 0 2.835-1.799 32.243 32.243 0 0 0 2.651-2.024c1.704-1.425 3.257-3.013 4.713-4.694 2.895-3.382 5.488-6.994 8.272-10.36a187.049 187.049 0 0 0 4.062-5.143 89.869 89.869 0 0 0 1.945-2.635c0.636-0.888 1.281-1.764 1.896-2.668a168.548 168.548 0 0 0 3.581-5.486l1.687-2.81 1.627-2.846c2.054-3.813 3.994-7.687 5.571-11.737 12.67 29.396 22.33 56.427 28.111 79.154-22.642-2.027-52.043-9.247-85.459-20.649z m-153.486-68.116C590.255 689.852 645.72 653.183 678 622.719a1206.71 1206.71 0 0 1 21.493 38.876l-0.926 1.111c-1.117 1.426-2.407 2.736-3.616 4.084-0.595 0.681-1.268 1.307-1.907 1.954l-1.931 1.924c-5.253 5.04-10.894 9.673-16.767 13.994l-4.424 3.212-4.503 3.105-4.558 3.024c-1.526 0.997-3.08 1.958-4.615 2.937a316.26 316.26 0 0 1-9.341 5.686l-2.35 1.393-2.376 1.354a198.216 198.216 0 0 1-4.768 2.67c-6.372 3.533-13.064 6.498-19.726 9.398a232.024 232.024 0 0 0-9.845 4.577c-1.61 0.819-3.221 1.625-4.814 2.474l-4.757 2.591a859.642 859.642 0 0 0-18.888 10.898l-9.513 5.7c-1.356 0.859-2.731 1.661-4.108 2.511-2.4-1.168-4.803-2.345-7.212-3.537l-0.1-0.05a1167.85 1167.85 0 0 1-5.594-2.789c-0.803-0.403-1.606-0.805-2.41-1.21-0.667-0.336-1.333-0.674-1.999-1.011a1101.932 1101.932 0 0 1-10.854-5.561l-1.383-0.718c-1.083-0.563-2.167-1.129-3.251-1.697-0.26-0.136-0.521-0.272-0.78-0.409-2.828-1.48-5.655-2.977-8.484-4.489z m-15.477 195.395c-130.259-0.321-232.254-19.634-248.034-46.967-8.644-14.971-3.25-51.015 15.189-101.49a594.56 594.56 0 0 1 1.518-4.106c1.899 4.69 4.06 9.291 6.51 13.729 0.977 1.781 1.938 3.586 2.962 5.347 1.058 1.734 2.148 3.451 3.227 5.183l1.633 2.592c0.537 0.872 1.155 1.675 1.73 2.517 1.172 1.664 2.336 3.341 3.536 4.993 1.167 1.683 2.443 3.265 3.698 4.872l3.82 4.786c1.286 1.587 2.646 3.099 3.993 4.632l4.065 4.581c1.398 1.481 2.827 2.932 4.247 4.396l2.135 2.193c0.712 0.731 1.418 1.471 2.163 2.163l4.454 4.183c1.496 1.383 2.954 2.818 4.504 4.133l4.637 3.975c1.546 1.326 3.106 2.637 4.718 3.875 1.593 1.264 3.217 2.488 4.826 3.732l2.426 1.85c0.817 0.605 1.657 1.176 2.484 1.765 6.614 4.724 13.467 9.092 20.481 13.156l5.296 2.982 2.646 1.489c0.884 0.491 1.788 0.948 2.683 1.419l5.38 2.805c1.791 0.937 3.579 1.877 5.402 2.748l5.438 2.665c1.814 0.884 3.616 1.789 5.45 2.626l5.48 2.554 2.739 1.275c0.91 0.43 1.825 0.851 2.754 1.241 3.695 1.603 7.373 3.237 11.075 4.808l11.188 4.511 11.301 4.194c3.788 1.334 7.602 2.596 11.398 3.895 15.291 4.901 30.811 9 46.484 12.254 4.319 0.878 8.652 1.688 12.994 2.437-1.814 0.008-3.631 0.012-5.45 0.012l-3.18-0.005z m167.329-12.095c-33.885 5.849-74.995 9.719-118.98 11.297a428.79 428.79 0 0 1-50.434-11.04 445.238 445.238 0 0 1-44.427-14.963c-3.617-1.466-7.247-2.891-10.847-4.385l-10.721-4.664-10.579-4.957c-3.494-1.715-6.958-3.49-10.434-5.229a65.995 65.995 0 0 1-2.579-1.36l-2.562-1.393-5.12-2.783c-1.723-0.897-3.366-1.939-5.043-2.917l-5.006-2.971a443.013 443.013 0 0 1-19.488-12.651c-6.379-4.363-12.672-8.816-18.917-13.313-0.783-0.559-1.581-1.1-2.352-1.673l-2.313-1.722c-1.551-1.136-3.085-2.294-4.652-3.411-0.774-0.57-1.576-1.107-2.326-1.705l-2.285-1.754-4.601-3.477c-1.569-1.12-3.037-2.353-4.551-3.537l-4.523-3.58c-3.005-2.398-5.895-4.924-8.894-7.35l-8.673-7.623-4.227-3.938c-1.423-1.304-2.875-2.59-4.214-3.971-2.718-2.728-5.591-5.358-8.206-8.203l-4.045-4.197c-1.332-1.415-2.588-2.89-3.905-4.332l-1.974-2.169-0.989-1.088-0.939-1.122c-1.258-1.494-2.507-3.003-3.797-4.498-0.631-0.755-1.305-1.489-1.904-2.267l-1.825-2.328c-0.115-0.141-0.228-0.285-0.342-0.427 9.296-24.255 21.005-50.541 34.5-77.577a90.654 90.654 0 0 0 1.757 4.747l1.633 3.819c0.585 1.252 1.21 2.482 1.818 3.729 0.309 0.62 0.606 1.25 0.932 1.86l1.008 1.81c0.679 1.203 1.336 2.429 2.04 3.62 5.693 9.486 12.41 18.321 19.689 26.57l2.768 3.056a113.338 113.338 0 0 0 2.8 3.028c1.904 1.975 3.795 3.979 5.762 5.886 1.951 1.928 3.892 3.874 5.917 5.716l3.009 2.802 3.055 2.742 3.07 2.729 3.128 2.651 3.133 2.65 3.174 2.59 3.193 2.57 3.235 2.508 3.237 2.508 3.273 2.453c17.511 13.017 36.078 24.462 55.315 34.499 19.263 9.999 38.919 19.094 58.762 27.662a848.365 848.365 0 0 0 29.997 12.271 795.767 795.767 0 0 0 30.454 11.038c20.473 6.866 41.236 12.864 62.261 17.768 10.52 2.422 21.104 4.566 31.748 6.363 10.645 1.787 21.348 3.263 32.105 4.204 10.754 0.951 21.554 1.447 32.348 1.275 7.025-0.134 14.048-0.552 21.024-1.33-15.632 7.595-39.234 14.265-69.471 19.484z m89.238-34.893c-2.509 4.297-7.247 8.445-14.036 12.376-8.888 0.666-17.808 0.697-26.695 0.268-10.613-0.488-21.189-1.614-31.692-3.194-21.009-3.167-41.743-8.004-62.146-13.908-20.422-5.845-40.535-12.755-60.308-20.498a782.414 782.414 0 0 1-29.47-12.057 835.282 835.282 0 0 1-28.942-13.236c-2.38-1.168-4.775-2.305-7.142-3.498l-7.106-3.565c-2.359-1.208-4.697-2.455-7.045-3.681-2.345-1.233-4.666-2.51-6.999-3.763a755.093 755.093 0 0 1-27.539-15.784l-6.8-4.063c-2.253-1.375-4.493-2.771-6.754-4.128l-6.732-4.151-6.707-4.18c-8.925-5.594-17.789-11.258-26.536-17.081-17.483-11.647-34.49-23.982-50.221-37.741-7.857-6.885-15.307-14.191-22.165-22.053-0.857-0.983-1.664-1.998-2.502-3l-1.249-1.51-1.188-1.548c-0.787-1.036-1.599-2.066-2.373-3.118l-2.243-3.211a118.814 118.814 0 0 1-4.343-6.994c10.321-20.418 21.629-41.215 33.667-61.845 32.074 31.573 88.226 70.389 153.551 106.543l-0.041 0.021 8.025 4.363 0.392 0.211c2.792 1.517 5.599 3.03 8.421 4.535l0.387 0.206a1274.732 1274.732 0 0 0 24.586 12.764c29.194 14.764 58.261 28.039 86.023 39.287 0.612 0.248 1.225 0.499 1.835 0.745 1.685 0.679 3.362 1.346 5.037 2.009a897.97 897.97 0 0 0 11.493 4.464c0.724 0.275 1.457 0.562 2.179 0.835 0.707 0.267 1.408 0.526 2.112 0.79l1.17 0.438c2.049 0.763 4.086 1.513 6.108 2.247 0.562 0.204 1.118 0.403 1.678 0.605 1.467 0.529 2.927 1.05 4.379 1.563 0.503 0.178 1.014 0.365 1.515 0.541 38.968 13.688 71.44 21.5 96.603 23.246 6.398 29.738 3.487 43.458-0.187 49.75z" fill="#286432" p-id="4018"></path><path d="M478.168 487.305c0 2.667-2.162 2.415-4.829 2.415s-4.829 0.253-4.829-2.415c0-2.667 2.415-7.244 4.829-7.244 2.414 0 4.829 4.577 4.829 7.244zM497.499 487.305c0 2.667-2.162 2.415-4.829 2.415s-4.829 0.253-4.829-2.415c0-2.667 2.415-7.244 4.829-7.244 2.414 0 4.829 4.577 4.829 7.244zM536.16 487.305c0 2.667-2.162 2.415-4.829 2.415s-4.83 0.253-4.83-2.415c0-2.667 2.415-7.244 4.83-7.244s4.829 4.577 4.829 7.244zM555.491 487.305c0 2.667-2.162 2.415-4.83 2.415-2.667 0-4.829 0.253-4.829-2.415 0-2.667 2.415-7.244 4.829-7.244 2.415 0 4.83 4.577 4.83 7.244zM516.829 487.305c0 2.667-2.162 2.415-4.829 2.415s-4.829 0.253-4.829-2.415c0-2.667 2.415-7.244 4.829-7.244s4.829 4.577 4.829 7.244zM468.503 506.636c0 2.667-2.162 2.415-4.829 2.415s-4.829 0.253-4.829-2.415c0-2.667 2.415-7.244 4.829-7.244 2.414 0 4.829 4.577 4.829 7.244zM449.172 506.636c0 2.667-2.162 2.415-4.829 2.415s-4.829 0.253-4.829-2.415c0-2.667 2.415-7.244 4.829-7.244 2.414 0 4.829 4.577 4.829 7.244zM487.833 506.636c0 2.667-2.162 2.415-4.829 2.415s-4.829 0.253-4.829-2.415c0-2.667 2.415-7.244 4.829-7.244 2.415 0 4.829 4.577 4.829 7.244zM526.495 506.636c0 2.667-2.162 2.415-4.829 2.415s-4.83 0.253-4.83-2.415c0-2.667 2.415-7.244 4.83-7.244s4.829 4.577 4.829 7.244zM545.826 506.636c0 2.667-2.162 2.415-4.83 2.415-2.667 0-4.829 0.253-4.829-2.415 0-2.667 2.415-7.244 4.829-7.244 2.415 0 4.83 4.577 4.83 7.244zM565.156 506.636c0 2.667-2.162 2.415-4.83 2.415s-4.829 0.253-4.829-2.415c0-2.667 2.415-7.244 4.829-7.244s4.83 4.577 4.83 7.244zM584.487 506.636c0 2.667-2.162 2.415-4.829 2.415s-4.83 0.253-4.83-2.415c0-2.667 2.415-7.244 4.83-7.244s4.829 4.577 4.829 7.244zM507.164 506.636c0 2.667-2.162 2.415-4.829 2.415s-4.829 0.253-4.829-2.415c0-2.667 2.415-7.244 4.829-7.244 2.414 0 4.829 4.577 4.829 7.244z" fill="#E8DABF" p-id="4019"></path></svg>